<svg id="Layer_1" data-name="Layer 1" xmlns="http://www.w3.org/2000/svg" viewBox="0 0 400 400"><title>Untitled-3</title><path d="M363.23,307.37V266.53l-15.64-4-.33-.79,8.23-13.88L326.62,219l-13.88,8.24-.79-.33-4-15.64H267.11l-4,15.64-.79.33L248.44,219l-28.88,28.88,8.24,13.88c-.12.26-.22.53-.33.79l-15.64,4v40.84l15.64,4,.33.79L219.57,326l28.88,28.88,13.88-8.24c.26.12.53.23.79.33l4,15.64H308L312,347l.79-.33,13.88,8.23L355.5,326l-8.24-13.88c.12-.26.23-.53.33-.78Zm-21.32,17-17,17-11.55-6.85-2.6,1.24a54.28,54.28,0,0,1-5.16,2.13l-2.72,1-3.32,13H275.51l-3.32-13-2.72-1a48.63,48.63,0,0,1-5.16-2.13l-2.6-1.24-11.55,6.85-17-17L240,312.78l-1.24-2.61a54.17,54.17,0,0,1-2.14-5.15l-1-2.72-13-3.32V274.93l13-3.32,1-2.72a50.82,50.82,0,0,1,2.13-5.16l1.25-2.6-6.86-11.55,17-17,11.56,6.85,2.6-1.24a54.17,54.17,0,0,1,5.15-2.14l2.73-1,3.32-13h24l3.32,13,2.73,1a51.61,51.61,0,0,1,5.15,2.13l2.6,1.25,11.56-6.86,17,17-6.86,11.56,1.24,2.6a51.68,51.68,0,0,1,2.14,5.15l1,2.73,13,3.31V299l-13,3.32-1,2.73a51.68,51.68,0,0,1-2.14,5.15l-1.24,2.6Zm0,0" fill="#606161"/><path d="M287.53,243.69A43.26,43.26,0,1,0,330.79,287a43.31,43.31,0,0,0-43.26-43.26Zm0,75.7A32.44,32.44,0,1,1,320,287a32.47,32.47,0,0,1-32.45,32.44Zm0,0" fill="#606161"/><path d="M287.53,265.32A21.63,21.63,0,1,0,309.16,287a21.65,21.65,0,0,0-21.63-21.63Zm0,32.45A10.82,10.82,0,1,1,298.35,287a10.83,10.83,0,0,1-10.82,10.82Zm0,0" fill="#606161"/><path d="M164.92,119A32.53,32.53,0,0,0,174,132.63v4.58l-25.71,9.64a27.17,27.17,0,0,0-17.55,25.32v28.27H260.5V172.17A27.18,27.18,0,0,0,243,146.85l-25.71-9.64v-4.58a32.45,32.45,0,0,0,9-13.67,21.62,21.62,0,0,0,18-21.26V76.07a48.67,48.67,0,1,0-97.33,0V97.7a21.62,21.62,0,0,0,18,21.26Zm41.5,20.5-10.81,18-10.82-18v-.4a31.73,31.73,0,0,0,21.63,0Zm-29.35,8.14L188,165.76l-10.83,5.42-7-21Zm72.61,24.57v17.45H141.54V172.17A16.29,16.29,0,0,1,152.06,157l7.95-3,10.81,32.43L195.61,174l24.79,12.39L231.2,154l8,3a16.29,16.29,0,0,1,10.52,15.19Zm-28.6-22-7,21-10.83-5.41,10.9-18.17Zm-25.47-20.06A21.65,21.65,0,0,1,174,108.51v-22a41.92,41.92,0,0,0,21.63-8.63,41.89,41.89,0,0,0,21.63,8.63v22a21.65,21.65,0,0,1-21.63,21.63ZM228.05,107V88.39a10.72,10.72,0,0,1,0,18.62ZM195.61,38.22a37.9,37.9,0,0,1,37.85,37.85v3a21.34,21.34,0,0,0-10.82-3h-.92a31.32,31.32,0,0,1-22.29-9.23L195.61,63l-3.82,3.83a31.34,31.34,0,0,1-22.29,9.23h-.93a21.27,21.27,0,0,0-10.81,3v-3a37.89,37.89,0,0,1,37.85-37.85ZM163.17,88.39V107a10.71,10.71,0,0,1,0-18.61Zm0,0" fill="#606161"/><path d="M28,362.65H136.13V222.06H28ZM38.8,232.88h86.51v119H38.8Zm0,0" fill="#606161"/><rect x="49.61" y="243.69" width="64.89" height="10.81" fill="#606161"/><rect x="49.61" y="265.32" width="10.81" height="10.81" fill="#606161"/><rect x="71.24" y="265.32" width="43.26" height="10.81" fill="#606161"/><rect x="49.61" y="286.95" width="64.89" height="10.81" fill="#606161"/><rect x="49.61" y="308.58" width="64.89" height="10.81" fill="#606161"/><rect x="103.69" y="330.21" width="10.81" height="10.81" fill="#606161"/><rect x="49.61" y="330.21" width="43.26" height="10.81" fill="#606161"/><path d="M172.4,269.15l-7.65-7.65L139.3,287l25.45,25.45,7.65-7.64L160,292.36h41V281.54H160Zm0,0" fill="#606161"/><path d="M87.46,113.92a5.42,5.42,0,0,1,5.41-5.41h24.8l-12.4,12.4,7.65,7.65,25.45-25.46L112.92,77.65l-7.65,7.65,12.4,12.4H92.87a16.24,16.24,0,0,0-16.22,16.22v97.33H87.46Zm0,0" fill="#606161"/><path d="M287.53,113.92V182l-12.4-12.39-7.64,7.64,25.45,25.45,25.45-25.45-7.64-7.64L298.35,182v-68A16.25,16.25,0,0,0,282.12,97.7h-27v10.81h27a5.41,5.41,0,0,1,5.41,5.41Zm0,0" fill="#606161"/></svg>