<svg id="Layer_1" data-name="Layer 1" xmlns="http://www.w3.org/2000/svg" viewBox="0 0 400 400"><title>Untitled-3</title><path d="M330.12,193.93c-10.13-8.35-26.16-9.07-36.68,2.22l-26.11,28a26.68,26.68,0,0,0-25.45-18.75H195.29c-3.54,0-4.72-1.35-10.86-6.08a62.31,62.31,0,0,0-81.93.19L85.38,214.62A26.52,26.52,0,0,0,61,214.31l-19.64,9.82a8.89,8.89,0,0,0-4,11.92l53.3,106.59a8.89,8.89,0,0,0,11.92,4l19.64-9.83A26.63,26.63,0,0,0,136.91,312h105a62.49,62.49,0,0,0,49.75-24.87l42.64-56.86A26.58,26.58,0,0,0,330.12,193.93Zm-215.88,127-11.69,5.85-45.36-90.7L68.9,230.2a8.88,8.88,0,0,1,11.91,4L118.22,309A8.88,8.88,0,0,1,114.24,320.9ZM320.06,219.63l-42.65,56.86a44.6,44.6,0,0,1-35.53,17.77H130.71L97.43,227.68l16.81-14.8a44.51,44.51,0,0,1,58.68,0c9.86,8.67,16,10.31,22.37,10.31h46.59a8.89,8.89,0,1,1,0,17.77H196.52a8.88,8.88,0,1,0,0,17.76h51.31a26.72,26.72,0,0,0,19.5-8.48l39.11-42a8.88,8.88,0,0,1,13.62,11.37Z" fill="#606161"/><path d="M223.17,105A35.4,35.4,0,0,0,233,80.48c0-19.56-15.8-36.12-35.53-36.12S161.35,60.9,161.35,80.48A34.85,34.85,0,0,0,171.5,105a54.2,54.2,0,0,0-27.92,47.09V161a8.89,8.89,0,0,0,8.88,8.89h89.42a8.89,8.89,0,0,0,8.89-8.89v-8.88A54.15,54.15,0,0,0,223.17,105Zm-25.7-42.85c9.63,0,17.76,8.41,17.76,18.36a17.78,17.78,0,0,1-17.76,17.76c-9.95,0-18.36-8.13-18.36-17.76A18.84,18.84,0,0,1,197.47,62.12Zm-36.12,90c0-19.58,16.54-36.12,36.12-36.12S233,132.21,233,152.13Z" fill="#606161"/></svg>