<svg id="Layer_1" data-name="Layer 1" xmlns="http://www.w3.org/2000/svg" viewBox="0 0 200 200"><title>iconset [Recovered]</title><path d="M156.47,54.62A26.34,26.34,0,0,0,130.23,42.4h0a12.11,12.11,0,0,0-22.42,6.35V69.89H92.19V48.74A12.11,12.11,0,0,0,69.77,42.4,26.34,26.34,0,0,0,43.53,54.62c-.06.11-.27.44-5.13,8.6a3,3,0,1,0,5.08,3c4-6.71,5-8.33,5.09-8.52a20.36,20.36,0,0,1,37.7,10.67h0V97.52A40.23,40.23,0,0,0,33.72,82.61l4.38-7.35a3,3,0,1,0-5.08-3c-6.28,10.53-16.17,26.34-17.41,29A40.25,40.25,0,1,0,92.19,118.5v-7.86h15.62v7.86a40.25,40.25,0,1,0,76.37-17.75C183,98.3,157.12,55.69,156.47,54.62Zm-5,3.1c.36.58,7.75,13,14.85,24.9a40.2,40.2,0,0,0-52.55,14.9V68.39h0a20.36,20.36,0,0,1,37.7-10.67Zm-37.7-9A6.18,6.18,0,0,1,124,44.12a26.39,26.39,0,0,0-10.31,7.69ZM107.81,75.8V93.38H92.19V75.8ZM76,44.12a6.12,6.12,0,0,1,4.12-1.58,6.2,6.2,0,0,1,6.19,6.2v3.07A26.31,26.31,0,0,0,76,44.12Zm-24,108.71A34.34,34.34,0,1,1,86.27,118.5,34.37,34.37,0,0,1,51.94,152.83Zm40.25-48.1V99.29h15.62v5.44Zm55.87,48.1A34.34,34.34,0,1,1,182.4,118.5,34.37,34.37,0,0,1,148.06,152.83Z" fill="#616160"/><path d="M174,109.18a3,3,0,0,0-5.57,2,21.35,21.35,0,0,1,1.27,7.32,21.61,21.61,0,1,1-5.79-14.73,3,3,0,0,0,4.33-4,27.34,27.34,0,1,0,5.76,9.43Z" fill="#616160"/><path d="M51.94,91A27.53,27.53,0,1,0,79.47,118.5,27.56,27.56,0,0,0,51.94,91Zm0,49.15A21.62,21.62,0,1,1,73.56,118.5,21.65,21.65,0,0,1,51.94,140.12Z" fill="#616160"/></svg>