<svg id="Layer_1" data-name="Layer 1" xmlns="http://www.w3.org/2000/svg" viewBox="0 0 400 400"><title>Untitled-3</title><path d="M79,220.82v118.1a5,5,0,0,0,5,5H258.86A39.61,39.61,0,0,0,287,332.23l19.07-19.07a12.78,12.78,0,0,0,3.78-9.12h8.26a5,5,0,0,0,5-5V274.15a5,5,0,0,0-5-5H293.24a5,5,0,0,0-5,5v20.1l-14,8.37a10,10,0,0,1-5.12,1.42h-4.73L267,291.2a13.16,13.16,0,0,0-3.66-11.93V215.68a25,25,0,0,0-12.1-21.37L218.39,174.6a49.61,49.61,0,0,0,10.07-30V94.77a49.83,49.83,0,0,0-99.65,0V144.6a49.55,49.55,0,0,0,8.54,27.87l-46,26.83A25,25,0,0,0,79,220.82ZM89,333.94V317.13a60.33,60.33,0,0,0,16.81,16.81Zm224.22-54.81v14.95h-8a12.83,12.83,0,0,0-6.95-2.87V279.13Zm-44,34.88a19.91,19.91,0,0,0,10.25-2.84l16.06-9.64a2.94,2.94,0,0,1,3.59,4.59L280,325.18a29.69,29.69,0,0,1-21.14,8.76H223.48V306.61L252.28,286a3.17,3.17,0,0,1,5,3.21l-3.76,18.8a5,5,0,0,0,4.89,6ZM158.71,190.25v4.18a5,5,0,0,0,.52,2.22l9,17.93L163,227.69l-25.67-43.64,6.56-3.84a49.76,49.76,0,0,0,14.87,10Zm21.83,19.12h-3.81l-8-15.93a50.12,50.12,0,0,0,19.75,0Zm-3.51,10h3.22l7.68,19.21-9.29,15.81-9.3-15.81Zm17.29,8.35-5.25-13.11,9-17.93a5,5,0,0,0,.53-2.22v-4.18a49.87,49.87,0,0,0,12.88-8.2l7.18,4.31Zm23.86-137.9H183.62a20,20,0,0,1-19.93-19.93v-12a39.82,39.82,0,0,1,54.49,32Zm-64.46-26.1v6.17a30.36,30.36,0,0,1-14.67,25.91l-.28.17V94.77a39.82,39.82,0,0,1,14.95-31.08Zm-14.95,43.87,5.41-3.24a40.33,40.33,0,0,0,15.37-16.75,29.86,29.86,0,0,0,24.07,12.19H218.5V144.6a39.87,39.87,0,0,1-79.73,0ZM96.36,207.91l32.31-18.84,45.67,77.64a5,5,0,0,0,8.59,0l44.24-75.22,19,11.37a15,15,0,0,1,7.26,12.82v59.83a13.15,13.15,0,0,0-6.9,2.42L217.3,298.77l-74.41-13.13a5,5,0,0,1-4.12-4.9V259.2h-10v21.54a14.93,14.93,0,0,0,12.35,14.72l72.35,12.77v25.71H138.77A49.88,49.88,0,0,1,89,284.11V220.82a15,15,0,0,1,7.41-12.91Zm0,0" fill="#646464"/><rect x="148.74" y="109.72" width="19.93" height="9.97" fill="#646464"/><path d="M168.67,164.53h5a15,15,0,0,0,14.95-14.95v-10h-10v10a5,5,0,0,1-5,5h-5Zm0,0" fill="#646464"/><path d="M163.69,129.65a5,5,0,1,1-5-5,5,5,0,0,1,5,5Zm0,0" fill="#646464"/><rect x="188.6" y="109.72" width="19.93" height="9.97" fill="#646464"/><path d="M203.55,129.65a5,5,0,1,1-5-5,5,5,0,0,1,5,5Zm0,0" fill="#646464"/><path d="M288.66,212.39a4.93,4.93,0,0,0-.41,2v39.86a5,5,0,0,0,5,5h24.91a5,5,0,0,0,5-5v-34l14.63-39a5,5,0,0,0,.32-1.75V159.55a44.85,44.85,0,1,0-89.69,0v19.93a5,5,0,0,0,5,5h24.91a5,5,0,0,0,5-5V159.55a10,10,0,1,1,19.93,0v18.91Zm4.58-72.77a19.94,19.94,0,0,0-19.93,19.93V174.5H258.36V159.55a34.88,34.88,0,0,1,69.76,0v19l-14.63,39a4.76,4.76,0,0,0-.32,1.75v29.9H298.22V215.38l14.55-33.94a5.09,5.09,0,0,0,.4-2V159.55a20,20,0,0,0-19.93-19.93Zm0,0" fill="#646464"/></svg>