<svg id="Layer_1" data-name="Layer 1" xmlns="http://www.w3.org/2000/svg" viewBox="0 0 400 400"><title>fire</title><path d="M46.74,74.06l20.57,36a5.15,5.15,0,0,0,3.22,2.44l19.19,4.8,65.83,65.82,7.27-7.27L96,109a5.13,5.13,0,0,0-2.38-1.36L75.14,103,57.62,72.35l15-15,30.68,17.54L108,93.31a5.11,5.11,0,0,0,1.35,2.39l66.86,66.86,7.27-7.28L117.6,89.45l-4.8-19.18a5.17,5.17,0,0,0-2.43-3.22l-36-20.57a5.15,5.15,0,0,0-6.17.83L47.62,67.88a5.15,5.15,0,0,0-.88,6.18Zm0,0" fill="#606060"/><path d="M260.56,147.12,147.42,260.27,140.14,253,253.29,139.85Zm0,0" fill="#606060"/><path d="M127.61,264.27a5.13,5.13,0,0,0-4.4-2.49H92.35a5.13,5.13,0,0,0-4.41,2.49L72.51,290a5.14,5.14,0,0,0,0,5.3L87.94,321a5.14,5.14,0,0,0,4.41,2.5h30.86a5.14,5.14,0,0,0,4.4-2.5L143,295.28a5.14,5.14,0,0,0,0-5.3ZM120.3,313.2h-25L82.92,292.63l12.34-20.57h25l12.34,20.57Zm0,0" fill="#606060"/><path d="M292.92,169.2a61.49,61.49,0,0,0,59.82-76.62,5.14,5.14,0,0,0-6.23-3.75,5.06,5.06,0,0,0-2.39,1.35l-32,32-25.4-8.46-8.47-25.4,32-32a5.15,5.15,0,0,0,0-7.27,5.23,5.23,0,0,0-2.41-1.36,61.52,61.52,0,0,0-76.62,59.83,60.18,60.18,0,0,0,1.25,12.05L119.83,232.17a60.26,60.26,0,0,0-12-1.25,61.71,61.71,0,1,0,61.71,61.71,60.26,60.26,0,0,0-1.25-12.05l27-27L207,265.41a5.14,5.14,0,0,0,7.27,0l2.57-2.57A5.77,5.77,0,0,1,225,271l-2.58,2.59a5.14,5.14,0,0,0,0,7.27l61.34,61.35a41.51,41.51,0,0,0,59-58.44l-.27-.26-61.34-61.35a5.15,5.15,0,0,0-7.28,0l-2.57,2.57a5.77,5.77,0,0,1-8.17-8.15h0L265.7,214a5.14,5.14,0,0,0,0-7.27l-11.79-11.79,27-27a60.18,60.18,0,0,0,12.05,1.25Zm20.2,174.86a31.37,31.37,0,0,1-10.93-2l40.16-40.17a31.18,31.18,0,0,1-29.23,42.16ZM254.86,210.4A16.05,16.05,0,0,0,277.49,233l57.71,57.76c.63.63,1.22,1.29,1.78,2l-44,44c-.67-.56-1.34-1.15-2-1.78l-57.76-57.76a16.05,16.05,0,0,0-22.63-22.6l-8.23-8.22,44.2-44.14Zm20.77-51.73L159,275.31a5.17,5.17,0,0,0-1.36,4.89,51.76,51.76,0,1,1-37.39-37.4,5.18,5.18,0,0,0,4.88-1.35L241.73,124.8a5.12,5.12,0,0,0,1.35-4.88,51.16,51.16,0,0,1,52.76-63.77L268.71,83.29a5.12,5.12,0,0,0-1.24,5.26l10.28,30.85a5.12,5.12,0,0,0,3.26,3.25l30.86,10.29a5.17,5.17,0,0,0,5.26-1.24l27.12-27.13c.06,1,.1,2,.1,2.92a51.16,51.16,0,0,1-63.86,49.83,5.14,5.14,0,0,0-4.89,1.35Zm0,0" fill="#606060"/><path d="M312,304.42l-7.28,7.28-51.42-51.43,7.27-7.27Zm0,0" fill="#606060"/></svg>